<svg width="872" height="463" viewBox="0 0 872 463" fill="none" xmlns="http://www.w3.org/2000/svg">
<g clip-path="url(#clip0_569_198)">
<path d="M673.677 443.266C667.44 451.342 660.106 457.35 661.702 460.092C661.702 460.092 665.045 462.584 674.175 462.584C689.917 462.584 705.358 461.388 702.814 459.792C699.296 457.599 689.118 456.776 679.389 453.436C676.895 452.588 684.653 447.927 682.557 447.179C679.472 446.178 676.497 444.867 673.677 443.266Z" fill="#002E4F"/>
<path d="M835.702 459.618C835.702 459.618 837.773 462.509 845.681 462.509C859.277 462.509 873.446 460.665 871.251 459.294C868.208 457.374 844.384 452.414 844.384 452.414L839.02 445.783L829.965 450.769L835.702 459.618Z" fill="#002E4F"/>
<path d="M792.619 259.378C786.642 259.403 780.685 258.691 774.882 257.259C772.441 256.598 770.363 254.995 769.104 252.803C767.846 250.61 767.51 248.008 768.172 245.568C768.834 243.129 770.438 241.052 772.632 239.794C774.826 238.537 777.43 238.202 779.872 238.863C780.221 238.863 801.675 244.447 814.223 233.703C822.605 226.499 825.798 212.939 823.677 193.421L823.004 187.189L842.312 176.246C844.511 175.066 847.084 174.792 849.482 175.483C851.88 176.174 853.912 177.775 855.144 179.944C856.376 182.112 856.709 184.677 856.074 187.088C855.438 189.499 853.883 191.567 851.742 192.847L843.185 197.683C844.557 220.691 838.945 237.691 826.546 248.261C816.069 257.259 802.997 259.378 792.619 259.378Z" fill="#00A4E2"/>
<path d="M825.674 206.458C825.3 220.317 821.608 230.363 814.623 236.37C800.878 248.161 777.203 242.128 776.929 242.029C775.601 241.662 774.213 241.561 772.845 241.73C771.478 241.899 770.157 242.336 768.958 243.015C766.537 244.387 764.76 246.664 764.019 249.345C763.278 252.026 763.633 254.891 765.007 257.31C766.38 259.729 768.658 261.504 771.341 262.245C777.467 264.936 784.11 266.247 790.799 266.083C831.437 264.663 855.959 229.64 856.408 209.225L825.674 206.458Z" fill="#E1F3F6"/>
<path d="M769.818 157.9C766.176 156.254 762.584 154.485 759.066 152.64C725.414 171.809 682.406 196.337 681.533 197.185C681.533 197.185 702.912 231.21 704.259 232.556C705.132 233.429 758.143 195.44 796.261 167.92C787.505 164.53 778.425 161.763 769.818 157.9Z" fill="#008DC4"/>
<path d="M770.368 156.902C779.174 160.791 788.43 163.608 797.385 167.148C818.39 151.967 834.605 140.102 834.605 140.102L798.782 130.131L760.24 152.017C763.55 153.745 766.926 155.374 770.368 156.902Z" fill="#00AFE2"/>
<path d="M708.5 112.283L729.63 169.416L770.916 184.547L718.628 89.0757L708.5 112.283Z" fill="#006091"/>
<path d="M773.187 198.606H742.578L769.82 246.142L811.33 263.616L773.187 198.606Z" fill="#006091"/>
<path d="M811.255 263.616L786.957 222.112L682.781 283.134L662.275 248.236L675.148 40.5923L721.972 13.1725L806.265 156.803L834.604 140.102L858.204 180.309L829.84 196.911L854.187 238.439L811.255 263.616ZM716.808 102.486L714.164 104.032L707.004 214.883L763.383 181.855L716.808 102.486Z" fill="#0071BC"/>
<path d="M627.65 238.713L662.276 248.211L682.782 283.134L646.161 273.886L627.65 238.713Z" fill="#008DC4"/>
<path d="M627.65 238.713L662.276 248.211L675.148 40.5674L643.367 32.9646L627.65 238.713Z" fill="#00AFE2"/>
<path d="M643.365 32.9646L675.147 40.5674L721.971 13.1226L689.79 3.77492L643.365 32.9646Z" fill="#8CD1FF"/>
<path d="M713.04 321.447C713.04 321.447 718.154 376.286 718.154 395.555C718.154 395.555 678.24 426.689 668.262 442.917C672.478 446.107 680.735 450.395 686.223 450.195C703.516 433.984 722.254 419.382 742.203 406.573C742.203 406.573 754.825 369.955 758.767 338.946L713.04 321.447Z" fill="#002E4F"/>
<path d="M741.555 324.039C750.543 324.353 759.466 322.399 767.499 318.356C765.004 307.413 770.443 275.082 777.478 257.783C777.478 257.783 782.941 245.768 779.099 242.079C764.88 228.394 752.781 229.615 749.014 229.366C735.967 240.384 711.594 272.889 712.642 315.838C719.278 322.892 732.898 323.989 741.555 324.039Z" fill="#E1F3F6"/>
<path d="M829.765 452.289C835.001 451.135 839.709 448.287 843.161 444.188C827.72 419.261 771.092 327.255 768.023 320.051C768.023 319.876 767.873 319.652 767.799 319.452C759.185 323.774 749.578 325.735 739.959 325.136C731.577 324.812 719.453 323.64 712.518 317.433C712.518 317.882 712.518 318.331 712.518 318.779C713.715 342.759 793.344 422.751 824.776 453.386C826.458 453.112 828.124 452.746 829.765 452.289Z" fill="#00396A"/>
<path d="M665.343 299.162C660.986 299.227 656.74 297.79 653.318 295.093C649.897 292.396 647.51 288.604 646.559 284.355C646.16 283.142 646.009 281.862 646.115 280.589C646.22 279.317 646.58 278.079 647.173 276.948C647.765 275.817 648.579 274.816 649.566 274.005C650.552 273.194 651.692 272.589 652.916 272.225C654.141 271.862 655.426 271.748 656.696 271.889C657.966 272.031 659.194 272.425 660.309 273.05C661.423 273.674 662.401 274.515 663.184 275.524C663.968 276.532 664.541 277.687 664.869 278.921C664.989 279.33 665.139 279.73 665.318 280.117C666.341 280.117 670.133 279.818 679.338 274.409C687.545 269.598 697.274 262.394 706.779 255.44C722.67 243.699 737.688 232.606 750.086 228.693C751.28 228.315 752.537 228.175 753.785 228.283C755.033 228.39 756.247 228.742 757.359 229.318C758.471 229.894 759.459 230.684 760.265 231.642C761.072 232.599 761.682 233.706 762.06 234.9C762.438 236.093 762.578 237.349 762.471 238.596C762.363 239.843 762.011 241.057 761.434 242.168C760.857 243.279 760.067 244.265 759.109 245.071C758.15 245.877 757.043 246.487 755.848 246.865C746.494 249.831 732.075 260.5 718.13 270.795C697.649 285.876 679.637 299.162 665.343 299.162Z" fill="#00A4E2"/>
<path d="M683.205 292.157C682.032 286.549 680.71 280.342 677.243 275.73C669.559 279.993 666.266 280.267 665.318 280.242C665.139 279.855 664.989 279.455 664.869 279.046C664.541 277.812 663.968 276.657 663.184 275.648C662.401 274.64 661.423 273.798 660.309 273.174C659.194 272.55 657.966 272.155 656.696 272.014C655.426 271.872 654.141 271.987 652.916 272.35C651.692 272.713 650.552 273.319 649.566 274.13C648.579 274.941 647.765 275.942 647.173 277.073C646.58 278.203 646.22 279.442 646.115 280.714C646.009 281.986 646.16 283.267 646.559 284.48C647.51 288.729 649.897 292.521 653.318 295.218C656.74 297.915 660.986 299.351 665.343 299.286C671.752 298.937 677.994 297.112 683.579 293.952L683.205 292.157Z" fill="#00A4E2"/>
<path d="M761.96 234.825C761.583 233.631 760.974 232.523 760.167 231.565C759.361 230.607 758.373 229.816 757.261 229.24C756.149 228.663 754.934 228.312 753.686 228.205C752.437 228.098 751.18 228.239 749.986 228.618C737.513 232.531 722.545 243.574 706.679 255.365C697.274 262.319 687.545 269.523 679.238 274.334L678.141 274.958C681.708 279.669 687.895 302.926 687.994 303.449C698.123 298.165 746.693 261.223 757.22 250.08C760.937 246.316 763.557 239.935 761.96 234.825Z" fill="#E1F3F6"/>
<path d="M651.848 291.459C651.258 291.458 650.683 291.275 650.201 290.936C642.718 285.601 638.801 275.306 638.651 274.858C638.487 274.506 638.397 274.124 638.388 273.735C638.378 273.347 638.449 272.961 638.596 272.601C638.743 272.241 638.963 271.916 639.242 271.645C639.521 271.375 639.853 271.165 640.217 271.028C640.581 270.892 640.97 270.833 641.358 270.854C641.746 270.875 642.126 270.976 642.473 271.15C642.82 271.325 643.128 271.57 643.376 271.869C643.624 272.168 643.808 272.515 643.915 272.889C643.915 272.889 647.407 282.037 653.469 286.374C653.906 286.734 654.225 287.217 654.383 287.76C654.541 288.303 654.533 288.881 654.358 289.419C654.183 289.957 653.85 290.429 653.402 290.776C652.954 291.122 652.413 291.325 651.848 291.36V291.459Z" fill="#00A4E2"/>
<path d="M651.849 284.679C651.398 284.677 650.955 284.568 650.556 284.36C650.156 284.151 649.813 283.851 649.554 283.483C645.961 278.497 643.093 266.358 642.768 265.012C642.604 264.284 642.735 263.522 643.133 262.891C643.53 262.26 644.162 261.813 644.889 261.646C645.247 261.561 645.62 261.548 645.983 261.608C646.347 261.667 646.696 261.798 647.009 261.993C647.322 262.187 647.593 262.442 647.808 262.742C648.022 263.042 648.174 263.381 648.256 263.74C649.055 267.13 651.649 276.702 654.144 280.242C654.359 280.542 654.512 280.883 654.595 281.243C654.677 281.603 654.687 281.975 654.625 282.339C654.562 282.703 654.428 283.051 654.23 283.363C654.031 283.675 653.773 283.944 653.47 284.156C652.996 284.492 652.43 284.674 651.849 284.679Z" fill="#00A4E2"/>
<path d="M655.714 283.034C655.173 283.015 654.65 282.841 654.207 282.531C653.765 282.221 653.421 281.79 653.219 281.289C650.724 275.007 649.652 261.796 649.602 261.347C649.546 260.607 649.786 259.874 650.27 259.311C650.754 258.748 651.443 258.4 652.184 258.344C652.925 258.287 653.658 258.528 654.221 259.011C654.785 259.495 655.133 260.183 655.19 260.924C655.576 267.148 656.655 273.31 658.408 279.295C658.551 279.635 658.624 280 658.625 280.369C658.626 280.738 658.553 281.103 658.412 281.444C658.27 281.785 658.062 282.094 657.801 282.354C657.539 282.614 657.228 282.82 656.886 282.959C656.505 283.069 656.105 283.095 655.714 283.034Z" fill="#00A4E2"/>
<path d="M659.931 281.688C659.309 281.691 658.704 281.487 658.212 281.107C657.719 280.728 657.368 280.196 657.212 279.594C656.182 274.939 656.182 270.115 657.212 265.46C657.381 264.736 657.83 264.109 658.462 263.716C659.094 263.324 659.855 263.198 660.58 263.366C661.304 263.535 661.932 263.984 662.325 264.615C662.718 265.246 662.844 266.008 662.675 266.732C661.88 270.512 661.88 274.417 662.675 278.198C662.857 278.919 662.747 279.682 662.369 280.321C661.99 280.961 661.374 281.425 660.655 281.613C660.417 281.664 660.174 281.689 659.931 281.688Z" fill="#00A4E2"/>
<path d="M772.812 250.155C771.49 250.158 770.184 249.859 768.995 249.283C767.926 248.78 766.966 248.071 766.172 247.197C765.377 246.323 764.763 245.301 764.364 244.19C763.966 243.078 763.791 241.899 763.849 240.72C763.907 239.541 764.198 238.384 764.704 237.317C766.539 233.758 768.764 230.414 771.34 227.347C772.875 225.525 775.071 224.388 777.445 224.184C779.819 223.981 782.177 224.729 784 226.262C785.823 227.796 786.961 229.991 787.165 232.363C787.368 234.735 786.62 237.091 785.085 238.913C783.492 240.811 782.097 242.865 780.919 245.045C780.189 246.575 779.04 247.867 777.605 248.771C776.17 249.676 774.508 250.155 772.812 250.155Z" fill="#00A4E2"/>
<path d="M774.109 245.519C775.182 246.69 776.304 247.812 777.452 248.859C778.974 247.957 780.19 246.619 780.944 245.02C782.122 242.84 783.518 240.786 785.11 238.888C786.642 237.063 787.386 234.705 787.177 232.333C786.969 229.96 785.826 227.768 784 226.237C782.174 224.707 779.815 223.964 777.44 224.172C775.066 224.38 772.872 225.522 771.34 227.347C771.166 227.546 770.442 228.419 769.494 229.69C769.594 235.323 770.193 241.206 774.109 245.519Z" fill="#0086CF"/>
<path d="M803.622 235.622C801.905 239.784 798.603 243.093 794.445 244.822C790.286 246.552 785.61 246.56 781.445 244.845C777.28 243.129 773.969 239.831 772.238 235.675C770.507 231.519 770.499 226.847 772.215 222.685L776.705 211.792C778.423 207.631 781.724 204.322 785.883 202.592C790.041 200.863 794.717 200.854 798.882 202.569C800.946 203.416 802.823 204.662 804.405 206.235C805.986 207.808 807.242 209.677 808.099 211.735C808.956 213.794 809.399 216.001 809.401 218.231C809.404 220.461 808.966 222.669 808.112 224.729L803.622 235.622Z" fill="#00A4E2"/>
<path d="M774.11 221.414C772.738 227.247 764.356 225.377 761.213 222.336C756.872 218.149 754.278 206.283 763.882 206.906C756.972 196.462 780.447 185.145 782.916 197.21C784.738 194.094 786.633 191.302 790.7 191.028C793.643 190.853 798.807 193.122 798.383 196.711C800.558 195.096 803.209 194.249 805.918 194.303C808.628 194.357 811.242 195.31 813.351 197.01C814.723 198.132 817.218 200.625 815.97 202.419C815.297 203.441 811.754 203.741 810.557 204.09C812.603 203.167 820.984 205.037 819.338 208.502C818.565 210.122 814.473 208.676 813.276 208.327C813.264 208.452 813.264 208.577 813.276 208.701C817.741 211.194 819.587 213.687 819.039 219.195C818.789 221.688 817.592 226.674 814.548 226.948C812.977 227.122 811.181 226.15 811.206 224.455C814.948 228.194 809.659 238.165 804.944 233.229C804.182 232.208 803.839 230.934 803.988 229.668C804.136 228.403 804.764 227.242 805.742 226.424C802.948 224.804 796.911 216.329 801.202 213.961C799.181 213.961 789.876 210.845 792.845 208.178C793.618 211.294 789.777 215.307 786.708 213.711C788.604 217.849 783.016 220.94 779.574 221.19C781.669 223.832 775.183 226.973 773.187 223.134L774.11 221.414Z" fill="#00396A"/>
<path d="M454.947 187.463C454.947 187.463 449.483 166.599 476.525 161.639L474.48 186.79L454.947 187.463Z" fill="#0089E0"/>
<path d="M346.555 240.209C340.85 240.247 335.208 239.012 330.041 236.595C305.469 225.003 302.75 190.13 302.6 188.66C302.421 186.138 303.253 183.648 304.911 181.738C306.57 179.829 308.919 178.655 311.443 178.477C313.968 178.298 316.459 179.129 318.37 180.786C320.281 182.444 321.455 184.791 321.634 187.314C322.183 194.318 326.174 213.736 338.198 219.37C348.177 224.031 363.494 219.37 382.703 205.66C384.77 204.326 387.273 203.84 389.691 204.305C392.108 204.769 394.252 206.148 395.677 208.153C397.102 210.159 397.697 212.636 397.339 215.07C396.981 217.503 395.696 219.704 393.754 221.215C375.992 233.853 360.176 240.209 346.555 240.209Z" fill="#CDE5E8"/>
<path d="M397.346 258.107C400.015 251.127 402.335 244.073 405.329 237.193C403.37 237.042 401.421 236.785 399.491 236.42C390.747 234.913 382.599 230.993 375.967 225.103C369.323 219.087 364.195 211.588 360.999 203.217C357.333 193.571 355.268 183.391 354.887 173.08C354.374 161.133 355.287 149.166 357.606 137.434C359.764 125.607 363.34 114.082 368.258 103.11C372.43 93.7371 378.091 85.1005 385.022 77.5344C391.054 70.9077 398.555 65.7854 406.925 62.5781C414.467 59.9713 422.522 59.1928 430.424 60.3066C438.327 61.4204 445.851 64.3947 452.377 68.9844C455.097 63.5752 457.99 58.2906 460.759 53.0061C464.027 46.7493 467.071 40.3929 469.989 33.9617C471.237 31.2197 472.31 28.378 473.432 25.5862C463.666 20.1237 453.062 16.3164 442.05 14.3191C426.577 11.1102 410.555 11.7263 395.375 16.1139C380.785 20.4248 367.309 27.8592 355.885 37.9002C343.687 48.7754 333.613 61.8168 326.174 76.3628C317.743 92.603 311.79 110.012 308.512 128.012C304.929 145.935 304.037 164.292 305.868 182.478C307.431 198.736 311.99 214.565 319.314 229.166C326.182 242.736 335.93 254.646 347.877 264.064C359.429 273.004 372.865 279.201 387.168 282.186C390.785 274.26 394.253 266.258 397.346 258.107Z" fill="#00AFE2"/>
<path d="M526.642 114.676C525.09 98.4077 520.531 82.5685 513.196 67.9624C506.325 54.4018 496.587 42.4946 484.657 33.0643C481.431 30.5568 478.03 28.2826 474.479 26.2592C473.382 29.0511 472.309 31.8678 471.037 34.6098C468.068 41.0161 465.1 47.3974 461.832 53.6542C459.013 58.9636 456.094 64.2981 453.375 69.7322C454.323 70.48 455.271 71.2278 456.194 72.0504C462.781 78.1352 467.899 85.6359 471.162 93.9863C474.93 103.534 477.072 113.645 477.498 123.899C478.032 135.907 477.102 147.935 474.729 159.719C472.565 171.483 469.006 182.947 464.127 193.869C459.953 203.339 454.209 212.036 447.138 219.594C441.017 226.208 433.454 231.326 425.036 234.551C419.112 236.73 412.803 237.672 406.501 237.317C403.333 244.796 400.638 252.598 397.745 260.226C394.851 267.853 391.658 275.182 388.34 282.51L390.585 282.984C406.051 286.168 422.059 285.552 437.235 281.189C451.798 276.86 465.24 269.408 476.625 259.353C488.825 248.473 498.906 235.433 506.361 220.89C514.779 204.645 520.731 187.238 524.023 169.241C527.596 151.283 528.479 132.894 526.642 114.676Z" fill="#006091"/>
<path d="M419.748 292.83C404.24 290.097 389.633 283.629 377.189 273.985C365.233 264.576 355.483 252.664 348.626 239.087C341.259 224.51 336.65 208.699 335.03 192.449C333.208 174.246 334.099 155.874 337.675 137.933C340.971 119.938 346.924 102.532 355.336 86.2838C362.796 71.7588 372.877 58.736 385.072 47.8711C396.494 37.7954 409.98 30.3345 424.587 26.0099C439.799 21.8749 455.754 21.2613 471.238 24.2159C486.723 27.1705 501.329 33.6153 513.945 43.0601C525.886 52.4855 535.633 64.3934 542.509 77.9581C549.833 92.5596 554.392 108.389 555.955 124.647C557.79 142.849 556.899 161.223 553.31 179.162C550.021 197.159 544.069 214.567 535.648 230.811C528.21 245.358 518.135 258.399 505.937 269.274C494.544 279.329 481.093 286.781 466.522 291.11C451.306 295.495 435.246 296.085 419.748 292.83ZM428.654 246.316C437.214 248.079 446.097 247.414 454.298 244.397C462.722 241.182 470.287 236.063 476.401 229.44C483.483 221.891 489.228 213.191 493.389 203.716C498.291 192.811 501.851 181.352 503.992 169.59C506.364 157.798 507.294 145.762 506.761 133.745C506.343 123.492 504.209 113.381 500.449 103.833C497.199 95.476 492.079 87.9728 485.481 81.8966C478.958 76.0809 470.941 72.1966 462.331 70.6794C453.657 68.8626 444.648 69.4927 436.312 72.4991C427.928 75.693 420.416 80.817 414.384 87.4554C407.447 95.0122 401.793 103.651 397.645 113.031C392.719 124 389.142 135.526 386.993 147.355C384.66 159.085 383.747 171.053 384.274 183.001C384.64 193.312 386.696 203.493 390.361 213.138C393.571 221.502 398.697 228.997 405.329 235.024C411.918 240.859 419.988 244.766 428.654 246.316Z" fill="#0071BC"/>
<path d="M588.184 152.74L588.907 187.812C588.907 187.812 578.929 196.786 569.898 187.812L573.216 148.328L588.184 152.74Z" fill="#00396A"/>
<path d="M546.823 432.522C546.25 432.048 542.333 430.229 541.834 429.78C540.065 432.473 538.025 434.979 535.747 437.258C537.504 438.657 538.856 440.498 539.663 442.593C540.469 444.687 540.702 446.959 540.337 449.173C538.425 450.859 536.391 452.4 534.251 453.785C528.787 456.477 518.709 460.216 518.709 460.216L544.079 462.21L562.889 442.942C557.265 439.901 551.892 436.417 546.823 432.522Z" fill="#002E4F"/>
<path d="M447.464 433.893C443.422 433.17 438.333 436.261 434.99 433.893C434.557 437.508 434.349 441.146 434.367 444.786L396.947 460.241H444.869C445.318 455.131 444.395 450.27 445.069 445.509C445.368 443.091 447.039 436.236 447.464 433.893Z" fill="#002E4F"/>
<path d="M491.143 263.715L448.734 344.205C448.734 344.205 465.897 358.738 482.811 363.574L514.643 268.726L491.143 263.715Z" fill="#CDE5E8"/>
<path d="M537.568 439.228C540.097 436.504 542.353 433.54 544.304 430.378C533.353 421.006 527.989 411.309 513.071 394.658C506.909 387.778 523.249 348.293 527.216 341.663C534.325 329.772 535.448 321.148 541.011 300.782L499.6 316.237C489.746 351.534 478.246 386.806 489.771 403.632C501.945 421.43 523.524 435.763 533.951 442.917C534.35 443.241 537.244 439.028 537.568 439.228Z" fill="#002E4F"/>
<path d="M467.845 183.4C467.263 183.395 466.698 183.213 466.223 182.877C465.922 182.663 465.666 182.392 465.47 182.08C465.275 181.767 465.143 181.419 465.082 181.055C465.022 180.691 465.035 180.319 465.119 179.96C465.204 179.601 465.358 179.262 465.575 178.963C467.496 176.427 468.879 173.526 469.641 170.438C469.786 169.712 470.209 169.072 470.819 168.653C471.429 168.234 472.179 168.07 472.909 168.194C473.27 168.255 473.616 168.386 473.926 168.581C474.236 168.775 474.505 169.03 474.716 169.329C474.927 169.628 475.077 169.966 475.156 170.323C475.236 170.68 475.243 171.05 475.179 171.41C474.298 175.327 472.598 179.014 470.19 182.228C469.92 182.596 469.567 182.894 469.159 183.098C468.751 183.301 468.301 183.405 467.845 183.4Z" fill="#00A4E2"/>
<path d="M538.068 309.357C550.392 275.556 560.919 222.486 564.86 201.298C562.878 200.479 560.844 199.788 558.773 199.229C555.131 198.207 550.741 197.01 546.999 198.182C545.146 198.787 543.377 199.625 541.735 200.675C540.802 203.442 540.077 206.275 539.565 209.15C539.565 209.15 513.097 259.752 495.834 294.326C510.506 297.479 524.704 302.532 538.068 309.357Z" fill="#C1272D"/>
<path d="M495.334 295.373C493.812 298.414 492.366 301.355 491.019 304.097C487.601 310.105 483.959 315.639 480.416 320.998C446.34 372.323 433.467 413.228 431.197 432.597C434.465 435.09 446.764 436.56 450.855 437.283C457.141 405.177 473.506 384.687 502.818 360.483C512.622 352.381 519.956 342.086 526.392 333.536C531.187 326.367 534.996 318.587 537.718 310.404C524.312 303.555 510.061 298.501 495.334 295.373Z" fill="#00396A"/>
<path d="M462.281 309.606C460.015 309.624 457.816 308.835 456.08 307.379C454.343 305.923 453.183 303.896 452.808 301.662C452.432 299.428 452.866 297.134 454.03 295.191C455.195 293.248 457.015 291.783 459.163 291.06C470.738 287.047 488.5 271.119 500.474 254.268C513.539 235.429 527.587 217.291 542.559 199.927C544.275 198.145 546.617 197.098 549.091 197.007C551.565 196.916 553.977 197.787 555.82 199.439C557.664 201.09 558.793 203.391 558.972 205.858C559.151 208.325 558.364 210.765 556.778 212.665C542.306 229.475 528.725 247.031 516.091 265.261C504.266 282.012 483.361 302.876 465.4 309.083C464.399 309.44 463.344 309.617 462.281 309.606Z" fill="#00A4E2"/>
<path d="M558.149 204.463H557.5C555.161 204.26 552.995 203.149 551.466 201.369C549.937 199.59 549.165 197.282 549.318 194.941C549.71 190.947 550.547 187.009 551.812 183.201C552.197 182.086 552.798 181.058 553.581 180.175C554.363 179.293 555.312 178.573 556.373 178.057C557.434 177.541 558.586 177.238 559.764 177.167C560.942 177.096 562.122 177.257 563.238 177.642C564.353 178.027 565.382 178.627 566.265 179.409C567.149 180.191 567.869 181.139 568.386 182.199C568.902 183.259 569.205 184.41 569.276 185.587C569.347 186.764 569.186 187.944 568.801 189.059C568.001 191.397 567.441 193.811 567.129 196.262C566.93 198.504 565.897 200.589 564.235 202.107C562.572 203.625 560.401 204.466 558.149 204.463Z" fill="#00A4E2"/>
<path d="M560.793 194.941C562.362 196.754 564.09 198.422 565.957 199.927C566.607 198.76 566.998 197.468 567.105 196.138C567.416 193.686 567.976 191.272 568.776 188.934C569.487 186.885 569.431 184.648 568.618 182.637C567.806 180.626 566.292 178.976 564.357 177.994C562.422 177.012 560.196 176.764 558.092 177.295C555.988 177.826 554.147 179.1 552.91 180.882C553.758 185.943 557.899 191.676 560.793 194.941Z" fill="#0086CF"/>
<path d="M583.945 175.548C583.896 177.785 583.405 179.99 582.5 182.036C581.594 184.083 580.292 185.93 578.669 187.471C577.045 189.012 575.133 190.216 573.041 191.015C570.95 191.814 568.72 192.191 566.482 192.125C564.243 192.076 562.035 191.586 559.985 190.681C557.936 189.777 556.086 188.476 554.542 186.854C552.998 185.232 551.79 183.321 550.988 181.231C550.186 179.141 549.805 176.913 549.868 174.676L550.142 162.91C550.191 160.672 550.682 158.466 551.587 156.418C552.492 154.37 553.794 152.522 555.417 150.979C557.04 149.436 558.952 148.229 561.044 147.427C563.136 146.626 565.366 146.245 567.605 146.308C569.843 146.357 572.05 146.848 574.098 147.752C576.146 148.657 577.994 149.958 579.537 151.58C581.079 153.202 582.284 155.114 583.084 157.204C583.883 159.294 584.261 161.521 584.194 163.757L583.945 175.548Z" fill="#00A4E2"/>
<path d="M448.81 306.864C444.17 306.711 439.607 305.635 435.388 303.699C434.75 303.378 434.257 302.828 434.009 302.159C433.762 301.49 433.777 300.752 434.052 300.094C434.328 299.436 434.843 298.907 435.494 298.613C436.145 298.32 436.883 298.284 437.559 298.514C445.043 301.63 450.83 302.078 454.572 299.81C455.208 299.468 455.952 299.384 456.648 299.574C457.345 299.764 457.942 300.214 458.317 300.831C458.691 301.448 458.814 302.185 458.661 302.891C458.507 303.596 458.088 304.215 457.491 304.621C454.859 306.153 451.855 306.93 448.81 306.864Z" fill="#00A4E2"/>
<path d="M452.153 310.927C448.049 310.83 443.975 310.21 440.029 309.083L438.756 308.784C438.081 308.564 437.514 308.098 437.168 307.479C436.822 306.859 436.723 306.132 436.89 305.443C437.057 304.753 437.478 304.152 438.069 303.76C438.66 303.367 439.378 303.212 440.079 303.325L441.351 303.624C448.264 305.825 455.682 305.886 462.63 303.798C462.999 303.667 463.391 303.614 463.782 303.643C464.172 303.672 464.553 303.781 464.898 303.965C465.244 304.149 465.548 304.403 465.79 304.71C466.032 305.018 466.208 305.372 466.305 305.751C466.403 306.13 466.42 306.525 466.356 306.911C466.292 307.298 466.148 307.666 465.934 307.994C465.72 308.321 465.439 308.6 465.111 308.814C464.783 309.027 464.414 309.17 464.027 309.232C460.158 310.305 456.167 310.875 452.153 310.927Z" fill="#00A4E2"/>
<path d="M448.61 301.33C443.049 301.242 437.691 299.234 433.442 295.647C432.924 295.136 432.624 294.445 432.605 293.718C432.585 292.99 432.848 292.284 433.338 291.746C433.828 291.208 434.507 290.88 435.233 290.832C435.96 290.783 436.677 291.017 437.234 291.484C439.333 293.266 441.822 294.531 444.5 295.176C447.178 295.821 449.97 295.829 452.651 295.198C453.35 295.072 454.071 295.214 454.669 295.596C455.267 295.978 455.7 296.571 455.879 297.258C456.059 297.944 455.973 298.673 455.638 299.299C455.303 299.924 454.744 300.401 454.073 300.632C452.289 301.097 450.453 301.332 448.61 301.33Z" fill="#00A4E2"/>
<path d="M454.522 298.314H454.198C451.446 298.064 448.788 297.189 446.427 295.754C444.066 294.32 442.065 292.365 440.577 290.038C440.216 289.377 440.133 288.6 440.346 287.878C440.559 287.156 441.05 286.548 441.712 286.187C442.374 285.827 443.151 285.744 443.874 285.957C444.597 286.169 445.206 286.66 445.566 287.321C446.617 288.871 448.004 290.164 449.623 291.105C451.243 292.046 453.053 292.61 454.921 292.756C455.288 292.777 455.647 292.87 455.978 293.03C456.309 293.19 456.605 293.414 456.849 293.688C457.094 293.962 457.282 294.282 457.402 294.629C457.523 294.976 457.574 295.343 457.553 295.709C457.532 296.076 457.438 296.435 457.278 296.765C457.118 297.096 456.894 297.392 456.62 297.636C456.345 297.88 456.025 298.068 455.678 298.189C455.331 298.309 454.964 298.36 454.597 298.339L454.522 298.314Z" fill="#00A4E2"/>
<path d="M488.05 187.463H487.576C482.936 186.69 470.113 184.671 467.269 184.671C466.879 184.708 466.484 184.663 466.112 184.539C465.74 184.415 465.397 184.214 465.107 183.95C464.817 183.686 464.585 183.365 464.426 183.006C464.268 182.647 464.186 182.259 464.186 181.867C464.186 181.475 464.268 181.087 464.426 180.728C464.585 180.369 464.817 180.048 465.107 179.784C465.397 179.52 465.74 179.319 466.112 179.195C466.484 179.071 466.879 179.026 467.269 179.063C471.211 179.063 486.752 181.555 488.499 181.904C489.233 182.033 489.888 182.444 490.322 183.05C490.756 183.656 490.935 184.409 490.819 185.145C490.702 185.794 490.361 186.382 489.855 186.806C489.349 187.229 488.71 187.462 488.05 187.463Z" fill="#00A4E2"/>
<path d="M486.255 193.321C486.007 193.359 485.755 193.359 485.507 193.321C479.04 191.522 472.455 190.181 465.799 189.308C465.094 189.214 464.45 188.858 463.997 188.31C463.544 187.762 463.315 187.063 463.356 186.353C463.397 185.643 463.705 184.976 464.219 184.483C464.732 183.991 465.412 183.711 466.124 183.699C473.158 184.558 480.121 185.933 486.954 187.812C487.67 188.01 488.278 188.483 488.647 189.127C489.016 189.771 489.116 190.535 488.924 191.252C488.77 191.843 488.425 192.366 487.942 192.74C487.459 193.115 486.866 193.319 486.255 193.321Z" fill="#00A4E2"/>
<path d="M484.908 199.503C484.618 199.541 484.324 199.541 484.035 199.503C471.387 195.415 468.268 195.166 466.572 195.041C465.781 194.985 464.996 194.86 464.227 194.667C463.871 194.574 463.538 194.412 463.245 194.19C462.952 193.968 462.705 193.691 462.52 193.374C462.334 193.056 462.214 192.706 462.164 192.342C462.115 191.977 462.137 191.607 462.231 191.252C462.425 190.531 462.895 189.915 463.539 189.538C464.183 189.16 464.95 189.05 465.674 189.233C466.115 189.345 466.567 189.412 467.021 189.432C469.067 189.607 472.459 189.881 485.731 194.144C486.359 194.356 486.892 194.784 487.236 195.35C487.58 195.917 487.713 196.587 487.612 197.242C487.511 197.897 487.182 198.495 486.682 198.931C486.183 199.368 485.546 199.614 484.883 199.628L484.908 199.503Z" fill="#00A4E2"/>
<path d="M479.468 203.99H479.268C466.596 203.068 466.072 196.213 466.047 195.44L471.685 195.29C471.69 195.232 471.69 195.174 471.685 195.116C471.685 195.116 472.259 197.858 479.693 198.381C480.418 198.463 481.084 198.823 481.55 199.386C482.015 199.949 482.243 200.67 482.187 201.397C482.138 202.09 481.832 202.739 481.329 203.219C480.826 203.698 480.163 203.973 479.468 203.99Z" fill="#00A4E2"/>
<path d="M468.742 200.625C466.757 199.845 464.638 199.463 462.505 199.503C459.312 199.503 455.021 194.094 455.021 188.46C455.021 188.46 453.475 171.909 470.962 179.387L468.742 200.625Z" fill="#00A4E2"/>
<path d="M523.848 249.781L499.426 370.578C499.426 370.578 537.419 379.726 560.719 366.316L566.631 198.606C566.631 198.606 540.437 189.482 523.848 249.781Z" fill="#CDE5E8"/>
<path d="M529.536 316.287L553.035 315.015C553.035 315.015 553.609 350.936 539.564 349.54C539.564 349.49 520.356 353.727 529.536 316.287Z" fill="#E1F3F6"/>
<path d="M559.047 195.739C556.473 193.424 553.131 192.145 549.667 192.149C547.719 192.17 545.796 192.592 544.019 193.39C542.242 194.188 540.648 195.344 539.339 196.786C524.245 214.306 510.089 232.611 496.931 251.626C495.334 253.894 493.563 256.212 491.692 258.531L489.197 261.572L491.916 264.438C494.81 267.504 497.829 270.471 500.772 273.362L505.537 278.048L509.005 281.538L512.148 277.774C514.967 274.409 517.561 271.044 519.881 267.803C532.434 249.734 545.906 232.32 560.244 215.631C561.48 214.25 562.43 212.638 563.039 210.888C563.647 209.138 563.904 207.285 563.792 205.436C563.681 203.586 563.204 201.777 562.39 200.113C561.575 198.449 560.439 196.962 559.047 195.739Z" fill="#E1F3F6"/>
<path d="M494.569 250.741L485.082 261.291L509.78 283.466L519.267 272.916L494.569 250.741Z" fill="#F8FDFF"/>
<path d="M532.93 182.278L554.508 190.729C554.508 190.729 563.688 146.109 557.003 139.404C557.003 139.404 532.93 137.135 532.93 182.278Z" fill="#00396A"/>
<path d="M558.25 147.181C558.999 148.328 575.712 159.495 588.909 156.404C588.909 156.404 586.664 136.662 555.955 139.528L558.25 147.181Z" fill="#00396A"/>
<path d="M571.171 168.219C571.176 170.08 570.628 171.901 569.596 173.45C568.565 174.999 567.096 176.207 565.377 176.922C563.657 177.636 561.764 177.824 559.937 177.463C558.111 177.101 556.433 176.205 555.116 174.889C553.799 173.574 552.903 171.897 552.541 170.072C552.179 168.246 552.367 166.355 553.082 164.637C553.797 162.918 555.006 161.451 556.557 160.42C558.107 159.389 559.929 158.842 561.791 158.847C564.277 158.853 566.659 159.843 568.416 161.599C570.174 163.356 571.164 165.736 571.171 168.219V168.219Z" stroke="#C1272D" stroke-width="0.87" stroke-miterlimit="10"/>
<path d="M592.376 170.014C592.391 171.636 591.922 173.226 591.03 174.582C590.138 175.937 588.862 176.997 587.366 177.626C585.869 178.255 584.219 178.424 582.625 178.113C581.032 177.802 579.567 177.024 578.417 175.879C577.267 174.734 576.485 173.272 576.168 171.681C575.852 170.09 576.017 168.44 576.642 166.943C577.266 165.445 578.323 164.167 579.677 163.272C581.03 162.376 582.62 161.903 584.244 161.913C586.394 161.919 588.455 162.774 589.978 164.291C591.501 165.809 592.363 167.865 592.376 170.014V170.014Z" stroke="#C1272D" stroke-width="0.75" stroke-miterlimit="10"/>
<path d="M571.172 168.219C571.986 167.876 572.878 167.755 573.754 167.869C574.631 167.983 575.462 168.327 576.161 168.868" stroke="#C1272D" stroke-width="0.87" stroke-miterlimit="10"/>
<path d="M298.035 184.646H297.362C296.181 184.561 295.029 184.244 293.972 183.712C292.914 183.181 291.973 182.445 291.201 181.549C290.429 180.652 289.842 179.612 289.473 178.488C289.105 177.364 288.963 176.179 289.054 175C289.455 171.007 290.292 167.07 291.549 163.259C292.323 161.008 293.96 159.156 296.101 158.111C298.241 157.067 300.709 156.914 302.962 157.688C305.215 158.461 307.068 160.097 308.113 162.236C309.159 164.375 309.312 166.841 308.537 169.092C307.731 171.428 307.171 173.843 306.866 176.296C306.71 178.541 305.716 180.645 304.08 182.191C302.444 183.738 300.287 184.614 298.035 184.646Z" fill="#0086CF"/>
<path d="M292.695 433.843C301.517 437.95 311.062 440.279 320.785 440.698C330.489 423.449 359.701 376.71 333.108 338.372L295.514 318.181C295.514 318.181 333.108 357.392 292.695 433.843Z" fill="#002E4F"/>
<path d="M312.179 449.198C312.179 449.198 315.647 442.169 318.366 437.433C316.321 437.183 307.215 436.81 303.398 435.364C298.531 444.089 292.992 452.423 286.834 460.291H337.375L312.179 449.198Z" fill="#002E4F"/>
<path d="M374.694 340.616C368.407 328.426 322.756 291.709 318.615 270.62C318.24 268.751 317.941 266.831 317.667 264.887C310.332 268.751 300.803 269.872 293.269 270.196C284.713 270.62 279.599 271.169 271.316 267.13C272.015 280.217 269.894 292.855 277.528 306.116C292.695 332.415 343.087 354.924 348.7 363.623C359.776 380.773 363.668 417.99 367.385 440.698C373.322 440.698 387.342 440.449 393.154 438.38C391.208 426.764 394.377 378.804 374.694 340.616Z" fill="#00396A"/>
<path d="M390.435 447.055C390.435 447.055 388.789 440.424 388.29 437.333C382.503 439.352 379.135 437.333 373.322 437.333C374.22 442.967 373.547 453.486 374.071 459.767H421.993L390.435 447.055Z" fill="#002E4F"/>
<path d="M293.618 277.201C300.927 276.877 316.244 274.708 322.406 268.701C321.134 258.73 316.668 242.577 318.24 229.615C323.579 185.544 302.125 172.507 302.125 172.507C302.125 172.507 292.146 165.602 284.213 173.853C272.139 186.317 260.34 221.439 261.537 273.412C269.919 277.575 284.887 277.475 293.618 277.201Z" fill="#CDE5E8"/>
<path d="M403.757 290.961C403.026 290.964 402.298 290.88 401.587 290.711C366.986 282.685 337.674 261.97 316.769 230.886C307.372 217.02 300.201 201.772 295.515 185.693C295.024 183.286 295.48 180.783 296.789 178.703C298.097 176.623 300.158 175.128 302.542 174.528C304.926 173.927 307.45 174.268 309.588 175.48C311.727 176.691 313.316 178.68 314.025 181.032C318.271 195.215 324.664 208.666 332.984 220.915C351.32 248.036 375.817 265.336 405.828 272.29C408.109 272.822 410.116 274.172 411.467 276.086C412.817 277.999 413.417 280.341 413.152 282.667C412.887 284.993 411.776 287.141 410.03 288.702C408.284 290.264 406.025 291.129 403.682 291.135L403.757 290.961Z" fill="#00A4E2"/>
<path d="M382.702 262.245C363.076 252.746 346.401 238.099 334.456 219.868C326.263 207.797 319.954 194.55 315.747 180.583C315.386 179.158 314.747 177.817 313.866 176.639C312.985 175.461 311.881 174.468 310.615 173.718C309.35 172.968 307.948 172.474 306.491 172.266C305.035 172.059 303.551 172.14 302.126 172.507C300.693 172.865 299.345 173.502 298.16 174.382C296.974 175.262 295.973 176.366 295.215 177.633C294.458 178.9 293.957 180.303 293.743 181.763C293.529 183.223 293.606 184.711 293.968 186.142V186.341C298.205 204.105 305.443 221.015 315.372 236.345C331.31 260.753 354.308 279.733 381.305 290.761C381.512 290.797 381.723 290.797 381.929 290.761C382.269 290.765 382.601 290.66 382.877 290.462C383.111 290.313 383.303 290.106 383.434 289.862C383.565 289.617 383.631 289.344 383.625 289.066V263.815C383.64 263.492 383.561 263.172 383.397 262.893C383.233 262.614 382.992 262.389 382.702 262.245Z" fill="#E1F3F6"/>
<path d="M410.842 291.634C407.566 291.608 404.299 291.265 401.088 290.612C400.397 290.424 399.803 289.981 399.427 289.372C399.051 288.762 398.922 288.033 399.065 287.331C399.207 286.63 399.612 286.009 400.197 285.595C400.781 285.181 401.501 285.005 402.211 285.103C410.568 286.773 417.528 286.175 422.941 283.283C423.603 282.933 424.377 282.859 425.093 283.079C425.808 283.299 426.407 283.794 426.758 284.455C427.109 285.116 427.182 285.889 426.962 286.604C426.742 287.32 426.247 287.918 425.586 288.269C421.027 290.596 415.96 291.752 410.842 291.634Z" fill="#00A4E2"/>
<path d="M411.242 285.352C409.864 285.362 408.487 285.262 407.126 285.053C406.762 285.001 406.412 284.878 406.096 284.691C405.779 284.503 405.503 284.256 405.283 283.961C405.063 283.667 404.903 283.333 404.813 282.977C404.722 282.621 404.703 282.251 404.756 281.887C404.796 281.514 404.91 281.153 405.092 280.824C405.274 280.496 405.519 280.207 405.815 279.975C406.11 279.742 406.448 279.571 406.811 279.472C407.173 279.372 407.551 279.346 407.924 279.395C413.952 280.017 420.03 278.837 425.386 276.004C425.714 275.821 426.074 275.704 426.447 275.66C426.82 275.616 427.198 275.646 427.559 275.748C427.921 275.849 428.259 276.021 428.553 276.254C428.848 276.486 429.094 276.774 429.278 277.101C429.461 277.429 429.578 277.789 429.623 278.161C429.667 278.534 429.637 278.912 429.535 279.273C429.433 279.634 429.261 279.971 429.029 280.266C428.796 280.561 428.508 280.807 428.18 280.99C422.962 283.771 417.155 285.267 411.242 285.352Z" fill="#00A4E2"/>
<path d="M408.746 279.843H407.399C406.692 279.749 406.047 279.39 405.594 278.84C405.141 278.289 404.914 277.588 404.959 276.876C405.003 276.165 405.315 275.497 405.833 275.007C406.35 274.517 407.035 274.241 407.748 274.235C409.61 274.412 411.488 274.176 413.248 273.542C415.008 272.909 416.605 271.894 417.926 270.57C418.159 270.286 418.445 270.049 418.769 269.875C419.093 269.701 419.448 269.592 419.814 269.555C420.18 269.518 420.55 269.554 420.902 269.659C421.254 269.765 421.582 269.939 421.868 270.172C422.153 270.404 422.389 270.69 422.563 271.014C422.738 271.338 422.846 271.692 422.883 272.058C422.92 272.424 422.885 272.793 422.779 273.145C422.673 273.497 422.499 273.825 422.267 274.11C420.547 275.967 418.453 277.439 416.122 278.427C413.791 279.416 411.277 279.898 408.746 279.843Z" fill="#00A4E2"/>
<path d="M399.042 275.107C398.344 275.041 397.695 274.717 397.222 274.199C396.75 273.68 396.488 273.004 396.488 272.303C396.488 271.602 396.75 270.926 397.222 270.407C397.695 269.888 398.344 269.564 399.042 269.498C400.791 269.424 402.501 268.963 404.05 268.149C405.599 267.334 406.947 266.186 407.998 264.787C408.426 264.177 409.078 263.761 409.812 263.63C410.546 263.499 411.302 263.664 411.915 264.089C412.22 264.299 412.48 264.567 412.681 264.878C412.881 265.188 413.018 265.536 413.083 265.9C413.148 266.264 413.14 266.638 413.059 266.999C412.979 267.36 412.827 267.701 412.613 268.003C411.04 270.14 409.001 271.89 406.649 273.121C404.297 274.352 401.696 275.032 399.042 275.107Z" fill="#00A4E2"/>
<path d="M389.861 211.767C389.413 211.77 388.97 211.665 388.571 211.462C388.171 211.258 387.827 210.961 387.566 210.596C385.161 207.389 383.461 203.711 382.577 199.802C382.516 199.098 382.721 198.397 383.154 197.837C383.586 197.277 384.213 196.901 384.91 196.781C385.607 196.662 386.324 196.809 386.917 197.193C387.511 197.577 387.939 198.17 388.115 198.855C388.867 201.95 390.242 204.859 392.156 207.405C392.373 207.704 392.528 208.043 392.612 208.402C392.697 208.761 392.709 209.133 392.649 209.497C392.588 209.861 392.456 210.209 392.261 210.522C392.065 210.834 391.809 211.105 391.508 211.318C391.018 211.633 390.443 211.79 389.861 211.767Z" fill="#00A4E2"/>
<path d="M390.435 213.014C390.261 213.038 390.085 213.038 389.911 213.014C383.791 212.201 377.624 211.801 371.451 211.817C370.752 211.751 370.103 211.427 369.631 210.909C369.158 210.39 368.896 209.714 368.896 209.013C368.896 208.311 369.158 207.635 369.631 207.117C370.103 206.598 370.752 206.274 371.451 206.208C377.976 206.185 384.494 206.618 390.959 207.505C391.688 207.649 392.331 208.076 392.747 208.693C393.163 209.309 393.318 210.065 393.179 210.795C393.051 211.426 392.707 211.993 392.206 212.398C391.705 212.803 391.079 213.02 390.435 213.014Z" fill="#00A4E2"/>
<path d="M369.905 218.846C369.216 218.85 368.55 218.596 368.038 218.135C367.526 217.674 367.204 217.039 367.136 216.354C367.091 215.983 367.12 215.608 367.221 215.249C367.322 214.89 367.494 214.554 367.726 214.262C367.958 213.97 368.246 213.727 368.573 213.547C368.9 213.367 369.259 213.253 369.631 213.213C371.402 212.989 387.093 211.069 392.282 211.991C392.644 212.055 392.99 212.189 393.301 212.386C393.611 212.583 393.879 212.84 394.09 213.141C394.301 213.442 394.45 213.782 394.53 214.14C394.609 214.499 394.616 214.87 394.552 215.232C394.418 215.965 393.999 216.616 393.387 217.041C392.774 217.466 392.018 217.631 391.284 217.5C388.066 216.927 376.715 217.999 370.304 218.797L369.905 218.846Z" fill="#00A4E2"/>
<path d="M373.572 225.203C372.889 225.181 372.236 224.911 371.737 224.444C371.237 223.977 370.925 223.344 370.857 222.664C370.79 221.984 370.973 221.302 371.371 220.747C371.77 220.191 372.357 219.799 373.024 219.644C377.065 218.958 381.051 217.975 384.948 216.703C386.495 216.204 388.415 215.581 391.259 214.758C391.624 214.614 392.015 214.547 392.407 214.562C392.8 214.577 393.184 214.673 393.537 214.846C393.89 215.018 394.203 215.262 394.455 215.562C394.708 215.862 394.896 216.211 395.006 216.588C395.116 216.964 395.146 217.36 395.094 217.748C395.042 218.137 394.909 218.511 394.705 218.846C394.5 219.18 394.227 219.468 393.905 219.692C393.582 219.915 393.216 220.069 392.831 220.143C390.062 220.94 388.241 221.539 386.669 222.037C382.597 223.392 378.427 224.433 374.196 225.153L373.572 225.203Z" fill="#00A4E2"/>
<path d="M379.683 229.665C378.986 229.652 378.318 229.381 377.809 228.905C377.3 228.429 376.985 227.781 376.926 227.087C376.867 226.392 377.068 225.701 377.49 225.145C377.911 224.59 378.524 224.211 379.209 224.081C388.315 222.536 390.111 219.096 390.136 219.096C390.246 218.742 390.426 218.415 390.665 218.132C390.904 217.85 391.197 217.618 391.528 217.45C391.858 217.283 392.218 217.184 392.588 217.158C392.957 217.132 393.328 217.181 393.678 217.301C394.385 217.535 394.97 218.038 395.306 218.701C395.643 219.364 395.703 220.133 395.474 220.841C395.1 221.937 392.68 227.446 380.157 229.59L379.683 229.665Z" fill="#00A4E2"/>
<path d="M390.436 226.275L388.291 203.417C391.085 203.64 393.685 204.935 395.545 207.03C397.405 209.126 398.382 211.86 398.27 214.659C398.294 218.173 397.297 222.087 390.436 226.275Z" fill="#00A4E2"/>
<path d="M327.296 151.792C327.902 154.069 328.052 156.443 327.737 158.778C327.423 161.113 326.65 163.362 325.463 165.398C324.277 167.434 322.699 169.215 320.822 170.64C318.945 172.066 316.805 173.107 314.524 173.703C312.247 174.309 309.873 174.46 307.538 174.147C305.203 173.834 302.952 173.064 300.915 171.881C298.878 170.698 297.095 169.124 295.667 167.251C294.24 165.378 293.196 163.242 292.596 160.966L289.403 148.926C288.193 144.325 288.858 139.432 291.252 135.32C293.647 131.208 297.575 128.213 302.176 126.99C306.777 125.782 311.67 126.447 315.781 128.84C319.892 131.232 322.885 135.157 324.103 139.753L327.296 151.792Z" fill="#00A4E2"/>
<path d="M325.551 145.411C324.369 149.26 322.222 152.744 319.314 155.531C315.6 158.612 311.118 160.629 306.348 161.366C301.577 162.104 296.695 161.534 292.223 159.719L292.547 160.966C293.764 165.57 296.762 169.503 300.882 171.899C305.001 174.295 309.904 174.957 314.512 173.741C319.12 172.524 323.056 169.529 325.454 165.412C327.851 161.296 328.514 156.397 327.297 151.792L325.551 145.411Z" fill="#00396A"/>
<path d="M292.497 160.293C285.736 155.98 278.477 139.528 289.129 135.939C295.715 133.72 293.046 153.986 293.046 159.744L292.497 160.293Z" fill="#00396A"/>
<path d="M287.083 137.285C278.925 131.402 289.028 114.701 309.16 114.701C321.633 114.701 321.633 124.223 312.902 129.358C305.767 133.645 294.691 131.128 289.328 138.407L287.083 137.285Z" fill="#00396A"/>
<path d="M325.55 149.1C321.606 143.328 318.024 137.318 314.823 131.103C313.426 127.962 311.531 122.628 317.817 126.417C323.081 129.582 325.925 140.775 325.301 146.358L325.55 149.1Z" fill="#00396A"/>
<path d="M183.306 189.009C180.055 191.754 176.949 194.666 174.001 197.733L133.463 282.336L163.648 243.425L195.704 177.218C191.588 181.182 187.596 185.145 183.306 189.009Z" fill="#006091"/>
<path d="M159.258 175C162.202 170.986 165.045 166.275 168.388 162.112L97.4409 127.638L30.0859 134.368L148.032 188.71C151.924 184.272 155.815 179.811 159.258 175Z" fill="#006091"/>
<path d="M169.387 162.71C165.62 167.521 162.651 172.98 158.934 177.492C155.691 181.464 152.415 185.394 149.105 189.283L202.715 213.986L222.173 188.585L169.387 162.71Z" fill="#00AFE2"/>
<path d="M88.6602 260.899L109.44 217.376L0.5 165.378L17.9624 128.859L197.401 23.268L246.371 46.6995L174.401 196.886L204.062 211.094L183.905 253.121L154.269 238.938L133.464 282.336L88.6602 260.899ZM169.361 92.4408L166.592 91.1197L70.624 147.256L129.572 175.448L169.361 92.4408Z" fill="#0071BC"/>
<path d="M204.061 211.094L222.172 188.46L207.953 219.993L183.256 254.467L204.061 211.094Z" fill="#006091"/>
<path d="M197.102 175.947L267.849 20.9996L246.37 46.6995L174.4 196.886C176.396 194.941 195.954 177.093 197.102 175.947Z" fill="#006091"/>
<path d="M17.9883 128.859L49.9694 101.041L225.267 0.50946L197.402 23.268L17.9883 128.859Z" fill="#009EE7"/>
<path d="M197.4 23.268L246.37 46.6995L267.849 20.9996L225.265 0.50946L197.4 23.268Z" fill="#8CD1FF"/>
<path d="M137.33 136.462C131.293 132.2 127.152 133.969 124.258 134.518C122.33 134.784 120.371 134.341 118.745 133.272C118.121 132.922 117.387 132.823 116.693 132.994C115.999 133.166 115.395 133.594 115.005 134.193C114.615 134.792 114.467 135.517 114.592 136.22C114.717 136.924 115.104 137.554 115.676 137.983C117.822 139.223 120.131 140.154 122.537 140.75C117.872 145.087 113.107 150.072 112.758 150.421C112.509 150.691 112.315 151.008 112.189 151.353C112.062 151.697 112.005 152.064 112.02 152.43C112.05 153.171 112.374 153.87 112.92 154.372C113.466 154.875 114.189 155.14 114.93 155.11C115.672 155.079 116.371 154.756 116.874 154.21C116.874 154.21 120.242 150.596 123.959 147.031C120.516 151.319 117.273 155.806 116.699 156.628C116.395 157.045 116.212 157.539 116.171 158.054C116.131 158.569 116.234 159.085 116.469 159.544C116.704 160.004 117.062 160.39 117.504 160.658C117.945 160.927 118.453 161.068 118.969 161.065C119.417 161.062 119.857 160.955 120.256 160.752C120.654 160.548 121 160.254 121.264 159.894C123.086 157.401 125.68 153.861 128.175 150.745C127.252 152.565 126.079 154.634 123.734 158.398C123.537 158.71 123.405 159.058 123.343 159.422C123.282 159.786 123.294 160.158 123.377 160.517C123.461 160.876 123.614 161.215 123.83 161.515C124.045 161.814 124.318 162.068 124.632 162.262C125.072 162.541 125.583 162.688 126.104 162.686C126.599 162.704 127.091 162.592 127.529 162.36C127.967 162.128 128.336 161.784 128.599 161.364C129.572 159.819 130.345 158.523 131.093 157.426C130.85 158.028 130.824 158.695 131.02 159.314C131.215 159.932 131.621 160.464 132.166 160.816C132.615 161.118 133.146 161.274 133.688 161.265C134.136 161.254 134.575 161.138 134.969 160.926C135.364 160.714 135.702 160.411 135.958 160.043C138.037 157.02 139.543 153.64 140.398 150.072H140.523C142.095 142.245 140.199 138.506 137.33 136.462ZM131.692 156.204C132.615 154.584 133.264 153.338 133.862 152.116C133.239 153.53 132.513 154.896 131.692 156.204Z" fill="#00A4E2"/>
<path d="M51.3152 168.294C42.4343 167.796 29.5371 185.17 42.7337 189.906C30.7844 189.632 27.7659 206.508 38.8171 211.169C19.6334 207.405 21.8536 232.332 30.9341 241.256C29.4051 241.085 27.8572 241.258 26.4036 241.762C24.9499 242.265 23.6273 243.087 22.5322 244.167C21.4372 245.247 20.5974 246.557 20.0743 248.003C19.5512 249.449 19.3579 250.993 19.5087 252.523C20.4317 258.979 23.0012 267.903 38.9418 272.664C54.8825 277.425 64.6116 268.501 72.5445 260.051C77.5338 270.421 102.705 256.412 99.9854 244.023C109.465 247.363 117.947 236.545 118.121 228.045C118.296 219.544 112.434 213.288 106.871 207.854C110.787 204.264 111.536 197.584 110.513 192.474C108.791 184.023 98.1644 183.176 98.1644 176.445C98.1644 173.953 98.6383 166.749 96.6177 163.533C93.4246 158.398 87.8366 153.338 80.8267 155.831C51.3152 141.871 51.3152 168.294 51.3152 168.294Z" fill="#00396A"/>
<path d="M68.5034 440.698C60.3958 439.277 59.0986 439.676 51.041 437.732L32.5059 460.366H104.426L62.6909 449.198L68.5034 440.698Z" fill="#002E4F"/>
<path d="M202.34 447.179L198.1 441.72C194.307 444.246 190.219 446.297 185.926 447.827L197.276 460.49H239.411L202.34 447.179Z" fill="#002E4F"/>
<path d="M43.4824 440.773C51.5401 442.742 59.5728 444.786 67.7302 446.182L127.077 373.195L116.974 344.205L75.3388 296.32L87.3131 364.197L43.4824 440.773Z" fill="#002E4F"/>
<path d="M124.208 276.229C107.918 271.916 85.8409 277.375 70 283.358C70 283.358 79.7041 322.02 86.0904 333.536C104.675 367.138 185.102 450.943 185.102 450.943C189.518 449.423 198.024 443.216 201.916 440.698L124.208 276.229Z" fill="#00396A"/>
<path d="M67.8552 298.464C83.5963 292.581 115.253 282.61 131.319 286.673C131.319 286.673 109.89 236.345 100.161 225.253C93.5998 217.775 57.752 196.686 57.752 224.231C58.1674 249.287 61.5589 274.206 67.8552 298.464Z" fill="#CDE5E8"/>
<path d="M81.8258 221.888L81.1772 222.087C78.8781 222.704 76.4278 222.384 74.3649 221.197C72.302 220.009 70.7953 218.052 70.1758 215.755C69.2445 211.843 68.7673 207.837 68.7539 203.815C68.7539 201.435 69.7001 199.153 71.3843 197.47C73.0685 195.787 75.3527 194.842 77.7346 194.842C80.1164 194.842 82.4007 195.787 84.0849 197.47C85.7691 199.153 86.7152 201.435 86.7152 203.815C86.7305 206.328 86.9979 208.834 87.5135 211.294C88.0453 213.45 87.7581 215.726 86.7075 217.683C85.6569 219.64 83.9176 221.138 81.8258 221.888Z" fill="#00A4E2"/>
<path d="M87.8129 213.014C87.7866 212.356 87.6861 211.704 87.5135 211.069C86.9979 208.609 86.7305 206.104 86.7152 203.591C86.7152 201.211 85.7691 198.929 84.0849 197.246C82.4007 195.563 80.1164 194.617 77.7346 194.617C75.3527 194.617 73.0685 195.563 71.3843 197.246C69.7001 198.929 68.7539 201.211 68.7539 203.591V204.339C73.1943 209.549 80.4787 211.917 87.8129 213.014Z" fill="#0086CF"/>
<path d="M96.5933 186.092C97.969 190.363 97.5939 195.005 95.5505 199C93.507 202.995 89.9617 206.017 85.6918 207.405C83.5707 208.097 81.3338 208.364 79.1093 208.191C76.8847 208.018 74.7162 207.408 72.728 206.396C70.7398 205.384 68.9708 203.99 67.5225 202.294C66.0742 200.598 64.975 198.633 64.2878 196.512L60.6457 185.295C59.254 181.014 59.6206 176.356 61.6649 172.345C63.7092 168.335 67.2638 165.299 71.5472 163.907C73.6812 163.223 75.9297 162.967 78.163 163.155C80.3964 163.343 82.5704 163.97 84.56 165.001C86.5495 166.032 88.3153 167.447 89.7554 169.163C91.1955 170.879 92.2817 172.862 92.9511 175L96.5933 186.092Z" fill="#00A4E2"/>
<path d="M196.653 177.093C196.313 176.798 195.899 176.6 195.456 176.52L196.828 175.025C197.078 174.754 197.273 174.436 197.4 174.089C197.527 173.743 197.584 173.375 197.567 173.006C197.551 172.638 197.462 172.276 197.305 171.942C197.148 171.608 196.926 171.309 196.653 171.061C196.525 170.926 196.373 170.816 196.204 170.737C196.55 170.251 196.731 169.667 196.721 169.071C196.71 168.474 196.509 167.897 196.146 167.423C195.784 166.949 195.279 166.604 194.706 166.438C194.132 166.272 193.521 166.293 192.961 166.499C194.233 165.203 195.031 164.306 195.131 164.206C195.557 163.639 195.754 162.933 195.681 162.228C195.609 161.523 195.273 160.871 194.741 160.402C194.209 159.933 193.52 159.682 192.811 159.699C192.102 159.715 191.425 159.999 190.915 160.492C187.265 164.566 183.067 168.114 178.442 171.036C176.845 168.55 174.556 166.583 171.856 165.378C171.165 165.119 170.399 165.143 169.726 165.447C169.052 165.751 168.527 166.308 168.264 166.998C168.001 167.686 168.018 168.45 168.312 169.126C168.606 169.801 169.153 170.335 169.836 170.612C171.457 171.397 172.824 172.624 173.777 174.152C173.482 174.96 173.264 175.795 173.129 176.645C131.842 232.631 77.0355 212.789 74.5658 211.842C72.2276 211.036 69.6676 211.167 67.4242 212.208C65.1809 213.249 63.429 215.119 62.5372 217.425C61.6453 219.73 61.683 222.291 62.6423 224.569C63.6015 226.847 65.4076 228.665 67.6806 229.64C78.3699 233.307 89.6081 235.119 100.909 234.999C104.977 235.003 109.042 234.77 113.083 234.301C133.713 231.809 164.223 220.043 188.595 188.66C188.994 188.41 189.568 188.061 190.292 187.538C190.831 187.197 191.347 186.823 191.838 186.416C193.743 184.801 195.496 183.015 197.077 181.082C197.32 180.796 197.503 180.464 197.614 180.105C197.724 179.747 197.761 179.37 197.721 178.997C197.682 178.624 197.567 178.263 197.383 177.935C197.199 177.608 196.951 177.322 196.653 177.093Z" fill="#00A4E2"/>
<path d="M120.591 211.991L118.271 212.49C112.531 213.719 106.678 214.337 100.808 214.335C92.0915 214.44 83.42 213.067 75.1635 210.272C72.3878 209.207 69.3029 209.287 66.5857 210.492C63.8685 211.698 61.7409 213.931 60.6697 216.703C60.0623 218.057 59.765 219.529 59.7996 221.013C59.8341 222.496 60.1996 223.953 60.8693 225.278C66.3325 234.999 81.4001 238.938 100.908 238.938C105.075 238.935 109.24 238.702 113.381 238.24C115.876 237.941 118.37 237.517 121.115 236.944L122.761 236.52C121.27 231.92 120.283 227.173 119.817 222.361C119.859 218.892 120.118 215.429 120.591 211.991Z" fill="#E1F3F6"/>
<path d="M60.3717 194.393C66.259 190.629 68.3046 183.624 67.656 176.62C72.8199 180.085 76.9111 177.966 80.1291 172.008C89.933 185.718 104.876 165.303 84.5197 157.924C68.2298 151.992 52.2641 168.095 56.4302 184.272L60.3717 194.393Z" fill="#00396A"/>
</g>
<defs>
<clipPath id="clip0_569_198">
<rect width="871" height="462" fill="white" transform="translate(0.5 0.50946)"/>
</clipPath>
</defs>
</svg>
